# xmcd
# Copyright (C) 1995-1998 Ti Kan
#
# Track frame offsets:
#       150
#       17573
#       34919
#       50516
#       70966
#       90036
#       102587
#       118220
#       137720
#       153254
#       172015
#       193324
#       212594
#       228907
#       241607
#       260192
#
# Disc length: 3732 seconds
#
# Revision: 15
# Processed by: cddbd v1.5.1PL0 Copyright (c) Steve Scherf et al.
# Submitted via: CD-Transfer v1.0
#
DISCID=dd0e9210
DTITLE=Topley-Bird Martina - Euro Express 577
DYEAR=04
DGENRE=
TTITLE0=Whatever U Want
TTITLE1=Afrodisiac
TTITLE2=I'm Ready (Dave Aude Edit)
TTITLE3=Freaks (Radio Edit)
TTITLE4=Neighborhood Music
TTITLE5=Triple Trouble (Clean)
TTITLE6=Radio (Main Mix)
TTITLE7=Karma (Album Vers.)
TTITLE8=What You Won't Do For Love (No Rap)
TTITLE9=Summertime
TTITLE10=When God Made You
TTITLE11=Breathe (2am)(Radio Edit)
TTITLE12=Now That I'm On My Own
TTITLE13=Mona Lisa
TTITLE14=Real Emotions
TTITLE15=Anything
EXTD=
EXTT0=
EXTT1=
EXTT2=
EXTT3=
EXTT4=
EXTT5=
EXTT6=
EXTT7=
EXTT8=
EXTT9=
EXTT10=
EXTT11=
EXTT12=
EXTT13=
EXTT14=
EXTT15=
PLAYORDER=
